<svg width="17" height="17" viewBox="0 0 17 17" fill="none" xmlns="http://www.w3.org/2000/svg">
<path d="M8.49589 17C13.1547 17 17 13.1528 17 8.5C17 3.8472 13.1464 0 8.48768 0C3.83712 0 0 3.8472 0 8.5C0 13.1528 3.84534 17 8.49589 17ZM8.49589 15.3066C4.7245 15.3066 1.70904 12.2732 1.70904 8.5C1.70904 4.72679 4.7245 1.70164 8.48768 1.70164C12.2591 1.70164 15.291 4.72679 15.2992 8.5C15.3074 12.2732 12.2673 15.3066 8.49589 15.3066ZM5.46399 9.28095H7.71532V11.5416C7.71532 11.9937 8.03577 12.3143 8.47946 12.3143C8.93958 12.3143 9.26825 11.9937 9.26825 11.5416V9.28095H11.5278C11.9797 9.28095 12.3084 8.96035 12.3084 8.50822C12.3084 8.05609 11.9879 7.72727 11.5278 7.72727H9.26825V5.46663C9.26825 5.00629 8.93958 4.68569 8.47946 4.68569C8.03577 4.68569 7.71532 5.00629 7.71532 5.46663V7.72727H5.46399C4.99565 7.72727 4.67521 8.05609 4.67521 8.50822C4.67521 8.96035 5.00387 9.28095 5.46399 9.28095Z" fill="white"/>
</svg>
