<svg xmlns="http://www.w3.org/2000/svg" xmlns:xlink="http://www.w3.org/1999/xlink" viewBox="0,0,256,256" width="20px" height="20px" fill-rule="nonzero"><g fill="none" fill-rule="nonzero" stroke="none" stroke-width="none" stroke-linecap="none" stroke-linejoin="miter" stroke-miterlimit="10" stroke-dasharray="" stroke-dashoffset="0" font-family="none" font-weight="none" font-size="none" text-anchor="none" style="mix-blend-mode: normal"><g transform="scale(2,2)"><path d="M64,16c-26.50967,0 -48,21.49033 -48,48c0,26.50967 21.49033,48 48,48c26.50967,0 48,-21.49033 48,-48c0,-26.50967 -21.49033,-48 -48,-48z" fill="#ffffff" stroke="none" stroke-width="1" stroke-linecap="butt"></path><path d="M64,25c-21.53911,0 -39,17.46089 -39,39c0,21.53911 17.46089,39 39,39c21.53911,0 39,-17.46089 39,-39c0,-21.53911 -17.46089,-39 -39,-39z" fill="#2a4466" stroke="none" stroke-width="1" stroke-linecap="butt"></path><path d="M64,16c-26.50967,0 -48,21.49033 -48,48c0,26.50967 21.49033,48 48,48c26.50967,0 48,-21.49033 48,-48c0,-26.50967 -21.49033,-48 -48,-48z" fill="none" stroke="#2a4466" stroke-width="6" stroke-linecap="butt"></path><path d="M64,42v44M42,64h44" fill="none" stroke="#ffffff" stroke-width="6" stroke-linecap="round"></path></g></g></svg>