<svg width="20" height="19" viewBox="0 0 20 19" fill="none" xmlns="http://www.w3.org/2000/svg">
<path d="M8.2538 15.5356C9.92134 15.5356 11.484 15.0618 12.7845 14.2525L17.3781 18.5855C17.6822 18.8618 18.0703 19 18.4898 19C19.3603 19 20 18.3584 20 17.5491C20 17.174 19.8637 16.8088 19.57 16.5325L15.0079 12.2192C15.9518 10.9558 16.5076 9.42597 16.5076 7.76779C16.5076 3.49403 12.795 0 8.2538 0C3.72313 0 0 3.49403 0 7.76779C0 12.0416 3.71264 15.5356 8.2538 15.5356ZM8.2538 13.4629C4.92921 13.4629 2.20241 10.8966 2.20241 7.76779C2.20241 4.63896 4.92921 2.07273 8.2538 2.07273C11.5784 2.07273 14.3052 4.63896 14.3052 7.76779C14.3052 10.8966 11.5784 13.4629 8.2538 13.4629Z" fill="white"/>
</svg>
